<?xml version="1.0" standalone="no"?>
<!DOCTYPE svg PUBLIC "-//W3C//DTD SVG 20010904//EN"
 "http://www.w3.org/TR/2001/REC-SVG-20010904/DTD/svg10.dtd">
<svg version="1.0" xmlns="http://www.w3.org/2000/svg"
 width="2834.000000pt" height="1480.000000pt" viewBox="0 0 2834.000000 1480.000000"
 preserveAspectRatio="xMidYMid meet">

<g transform="translate(0.000000,1480.000000) scale(0.100000,-0.100000)"
fill="#000000" stroke="none">
<path d="M10800 9615 c0 -3 -168 -634 -374 -1403 -206 -768 -378 -1409 -381
-1424 l-7 -28 100 0 100 0 7 28 c3 15 175 656 381 1424 206 768 374 1399 374
1402 0 4 -45 6 -100 6 -55 0 -100 -2 -100 -5z"/>
<path d="M16970 9420 c-344 -59 -617 -232 -795 -505 -138 -210 -201 -408 -211
-665 -16 -368 118 -709 373 -951 212 -202 457 -304 761 -316 332 -15 634 95
862 313 172 164 280 352 348 602 24 90 26 111 26 312 0 201 -2 222 -26 312
-55 202 -138 364 -260 508 -157 183 -388 322 -628 375 -88 19 -368 29 -450 15z
m390 -167 c173 -34 334 -120 472 -251 167 -160 281 -378 318 -609 14 -88 14
-289 0 -383 -40 -259 -189 -519 -380 -664 -163 -125 -325 -189 -515 -204 -363
-30 -684 110 -895 390 -356 472 -268 1203 185 1541 91 68 249 147 345 171 142
37 316 40 470 9z"/>
<path d="M20501 9414 c-93 -16 -238 -63 -316 -101 -437 -218 -703 -714 -655
-1224 18 -193 60 -336 145 -496 212 -399 623 -630 1087 -610 386 16 706 189
921 498 308 441 295 1071 -30 1497 -163 214 -404 366 -673 427 -105 24 -368
29 -479 9z m310 -144 c571 -58 972 -579 910 -1184 -52 -518 -418 -900 -903
-944 -198 -18 -371 13 -543 98 -198 98 -350 251 -451 455 -100 203 -138 409
-115 629 28 275 137 506 327 685 177 169 365 246 655 270 9 0 63 -4 120 -9z"/>
<path d="M4997 9383 c-32 -63 -1087 -2350 -1087 -2356 0 -4 39 -7 88 -7 l87 0
149 330 148 330 706 -2 705 -3 147 -325 148 -325 96 -3 96 -3 -43 93 c-24 51
-272 589 -553 1195 l-509 1103 -82 0 c-80 0 -83 -1 -96 -27z m400 -841 c166
-367 305 -675 309 -684 6 -17 -28 -18 -621 -18 -364 0 -625 4 -623 9 19 51
623 1361 627 1361 3 0 142 -301 308 -668z"/>
<path d="M980 8206 l0 -1186 563 0 c621 0 683 5 850 60 233 78 390 233 442
435 19 74 19 223 1 291 -49 186 -198 324 -437 404 l-83 28 70 35 c201 101 316
266 330 474 22 308 -148 523 -486 614 -83 23 -98 23 -667 27 l-583 3 0 -1185z
m1185 1010 c157 -37 283 -124 339 -234 14 -28 31 -83 37 -123 46 -296 -153
-519 -497 -559 -49 -5 -270 -10 -491 -10 l-403 0 0 476 0 476 473 -5 c387 -4
485 -8 542 -21z m-95 -1086 c206 -16 322 -49 433 -123 69 -47 129 -120 153
-187 40 -113 25 -280 -33 -379 -66 -113 -209 -203 -383 -243 -90 -20 -122 -21
-590 -22 l-495 -1 -3 483 -2 482 397 0 c219 0 454 -5 523 -10z"/>
<path d="M7470 8205 l0 -1185 850 0 850 0 0 75 0 75 -765 0 -765 0 0 485 0
485 680 0 680 0 0 75 0 75 -680 0 -680 0 0 475 0 475 755 0 755 0 0 75 0 75
-840 0 -840 0 0 -1185z"/>
<path d="M14537 8503 c-3 -989 0 -942 -73 -1089 -68 -139 -200 -237 -354 -265
-123 -22 -275 4 -395 68 -63 33 -165 134 -220 217 -27 41 -54 76 -58 76 -11 0
-126 -70 -133 -81 -6 -10 40 -82 106 -164 99 -121 235 -212 381 -252 49 -14
101 -18 219 -18 141 1 162 3 236 28 189 63 327 199 403 397 60 155 61 168 61
1111 l0 859 -85 0 -84 0 -4 -887z"/>
<path d="M23190 8205 l0 -1185 85 0 85 0 2 1052 3 1052 833 -1052 834 -1052
64 0 64 0 0 1185 0 1185 -80 0 -80 0 0 -1031 c0 -667 -3 -1028 -10 -1024 -5 3
-375 467 -822 1030 l-812 1025 -83 0 -83 0 0 -1185z"/>
<path d="M11630 8759 c-289 -296 -525 -543 -525 -548 0 -4 240 -254 534 -555
l533 -546 141 0 142 0 -141 143 c-523 530 -935 958 -932 967 1 5 221 233 488
507 267 273 500 513 518 535 l34 38 -134 0 -133 -1 -525 -540z"/>
<path d="M26391 8928 c200 -205 438 -448 528 -541 l165 -167 -45 -48 c-41 -43
-723 -744 -943 -969 l-91 -93 141 0 140 0 538 551 538 552 -139 141 c-77 78
-316 322 -532 544 l-394 402 -134 0 -135 0 363 -372z"/>
<path d="M6913 5985 c-234 -73 -344 -345 -234 -581 73 -157 244 -244 418 -215
199 34 333 198 333 406 0 183 -105 332 -274 388 -59 20 -183 21 -243 2z m270
-69 c70 -36 120 -89 156 -165 23 -49 26 -68 26 -161 0 -93 -3 -112 -27 -162
-33 -70 -96 -133 -168 -167 -80 -37 -191 -36 -275 2 -76 36 -147 109 -176 185
-32 82 -32 217 -1 287 34 74 67 118 117 154 69 49 109 61 205 58 72 -2 94 -7
143 -31z"/>
<path d="M19889 5976 c-104 -42 -162 -99 -213 -206 -29 -61 -31 -72 -31 -180
1 -140 20 -198 94 -280 58 -66 130 -104 225 -121 116 -20 257 15 351 87 l35
26 0 149 0 149 -160 0 -160 0 0 -25 0 -25 130 0 130 0 0 -115 0 -115 -37 -24
c-146 -96 -344 -81 -461 35 -133 131 -128 396 9 529 62 60 120 84 216 88 95 5
159 -12 224 -60 40 -29 43 -30 56 -12 19 26 17 28 -27 59 -98 68 -271 87 -381
41z"/>
<path d="M8210 5591 l0 -401 25 0 25 0 0 356 c0 198 4 353 9 350 4 -3 133
-163 286 -356 190 -240 283 -350 296 -350 18 0 19 14 19 400 l0 400 -25 0 -25
0 0 -347 c0 -342 0 -347 -19 -328 -11 11 -135 166 -276 345 -220 279 -261 325
-286 328 l-29 3 0 -400z"/>
<path d="M9682 5593 l3 -398 263 -3 262 -2 0 25 0 25 -235 0 -235 0 0 375 0
375 -30 0 -30 0 2 -397z"/>
<path d="M10970 5590 l0 -400 25 0 25 0 0 400 0 400 -25 0 -25 0 0 -400z"/>
<path d="M11850 5590 l0 -400 25 0 25 0 2 355 3 356 272 -344 c150 -190 279
-350 288 -357 8 -7 22 -10 30 -6 13 5 15 57 15 401 l0 395 -30 0 -30 0 -2
-344 -3 -345 -273 345 c-226 284 -277 344 -297 344 l-25 0 0 -400z"/>
<path d="M13320 5590 l0 -400 285 0 285 0 0 25 0 25 -257 2 -258 3 -3 163 -2
162 230 0 230 0 0 25 0 25 -230 0 -230 0 0 160 0 160 255 0 255 0 0 25 0 25
-280 0 -280 0 0 -400z"/>
<path d="M15910 5694 c0 -202 -4 -309 -12 -337 -26 -87 -109 -136 -201 -118
-57 10 -86 29 -128 80 -27 34 -34 38 -50 28 -26 -16 -24 -28 16 -74 50 -59
114 -87 195 -87 105 1 168 43 212 139 22 48 23 62 26 358 l4 307 -31 0 -31 0
0 -296z"/>
<path d="M16753 5718 c5 -305 11 -341 72 -421 24 -32 55 -55 101 -78 59 -29
74 -32 154 -32 80 0 95 3 154 32 99 49 149 126 166 255 5 39 10 171 10 294 l0
222 -29 0 -30 0 -3 -282 c-3 -263 -4 -286 -24 -328 -45 -95 -124 -143 -239
-144 -93 -1 -153 23 -203 80 -64 72 -72 118 -72 417 l0 257 -31 0 -31 0 5
-272z"/>
<path d="M18210 5588 l0 -401 173 6 c106 4 190 12 218 21 184 57 289 196 289
382 0 153 -80 282 -214 345 -85 40 -146 49 -317 49 l-149 0 0 -402z m365 338
c70 -18 111 -41 159 -90 164 -164 116 -457 -90 -552 -62 -29 -181 -46 -294
-42 l-85 3 -3 348 -2 347 132 0 c79 0 153 -6 183 -14z"/>
<path d="M21140 5590 l0 -400 283 2 282 3 3 22 3 23 -258 2 -258 3 -3 163 -2
162 230 0 230 0 0 25 0 25 -230 0 -230 0 0 160 0 160 255 0 255 0 0 25 0 25
-280 0 -280 0 0 -400z"/>
</g>
</svg>
